<?xml version="1.0" standalone="no"?>
<!DOCTYPE svg PUBLIC "-//W3C//DTD SVG 20010904//EN"
 "http://www.w3.org/TR/2001/REC-SVG-20010904/DTD/svg10.dtd">
<svg version="1.0" xmlns="http://www.w3.org/2000/svg"
 width="720.000000pt" height="720.000000pt" viewBox="0 0 720.000000 720.000000"
 preserveAspectRatio="xMidYMid meet">
<metadata>
Created by potrace 1.11, written by Peter Selinger 2001-2013
</metadata>
<g transform="translate(0.000000,720.000000) scale(0.100000,-0.100000)"
fill="#000000" stroke="none">
<path d="M3308 7195 c-2 -1 -64 -5 -138 -9 -74 -3 -144 -8 -155 -10 -11 -2
-58 -7 -105 -10 -47 -4 -94 -9 -105 -11 -11 -2 -45 -7 -75 -10 -30 -3 -66 -7
-80 -9 -14 -2 -46 -7 -71 -10 -50 -7 -90 -14 -129 -21 -14 -3 -43 -7 -65 -10
-22 -3 -51 -7 -65 -10 -14 -3 -41 -8 -60 -11 -249 -40 -932 -227 -1105 -303
-11 -5 -94 -37 -185 -72 -91 -34 -192 -74 -225 -89 -61 -28 -149 -67 -163 -72
-4 -1 -106 -52 -227 -113 -210 -105 -334 -174 -335 -185 0 -3 1611 -5 3580 -5
2018 0 3579 4 3577 9 -5 16 -372 207 -557 291 -201 90 -207 93 -306 133 -241
99 -765 273 -893 297 -14 3 -60 14 -101 25 -41 12 -86 23 -100 26 -14 3 -63
14 -110 24 -47 10 -128 26 -180 35 -52 9 -106 18 -120 21 -65 12 -287 44 -340
49 -25 3 -61 7 -80 10 -19 2 -57 7 -85 9 -97 9 -201 19 -250 22 -59 5 -742 13
-747 9z"/>
<path d="M70 5253 c0 -10 4 -45 9 -78 6 -33 12 -78 16 -100 3 -22 12 -78 21
-125 9 -47 17 -94 18 -105 7 -54 102 -447 141 -580 104 -354 220 -674 350
-960 12 -27 37 -81 55 -120 41 -90 129 -266 180 -360 34 -63 61 -110 164 -290
6 -11 24 -39 39 -62 15 -24 27 -45 27 -48 0 -4 11 -21 25 -39 14 -18 25 -36
25 -40 0 -4 5 -12 10 -19 6 -7 22 -30 37 -52 14 -22 51 -76 81 -120 31 -44 65
-93 76 -110 12 -16 24 -32 27 -35 3 -3 32 -41 64 -85 57 -78 290 -370 323
-404 10 -10 42 -46 72 -82 106 -125 502 -514 660 -649 14 -12 35 -30 48 -41
72 -62 279 -228 310 -248 20 -13 47 -34 61 -47 14 -13 29 -24 33 -24 3 0 13
-6 20 -13 16 -15 145 -107 151 -107 2 0 4 1116 4 2480 l0 2480 -1524 0 c-1444
0 -1523 -1 -1523 -17z"/>
<path d="M4083 2791 l0 -2480 20 11 c17 9 95 62 132 90 147 112 202 154 211
163 7 5 24 19 40 30 24 17 106 85 182 150 13 11 33 28 45 38 137 115 522 493
654 642 142 161 386 463 431 534 9 15 19 28 22 31 9 8 101 138 155 220 28 41
53 79 58 85 24 32 87 137 87 145 0 6 3 10 8 10 4 0 16 17 27 37 11 21 36 65
56 98 42 70 83 143 113 200 12 22 23 42 26 45 17 17 220 447 290 615 18 44 39
94 45 110 79 188 254 718 280 845 2 8 12 51 23 95 24 94 67 287 86 390 30 161
39 214 51 318 l7 57 -1524 0 -1525 0 0 -2479z"/>
</g>
</svg>
